<?xml version="1.0" encoding="UTF-8"?>
<!-- Generated by Pixelmator Pro 3.4.3 -->
<svg width="215" height="37" viewBox="0 0 215 37" xmlns="http://www.w3.org/2000/svg">
    <g id="Artwork2"/>
    <g id="Layer11">
        <path id="XMLID24" fill="#ee1c2e" stroke="none" d="M 1.561453 0.954838 L 27.986032 0.954838 L 27.986032 6.683868 C 26.064247 5.132257 22.100557 4.535484 17.896648 4.535484 L 17.896648 20.170969 C 17.896648 22.438709 18.136871 23.15484 18.977654 24.348389 L 10.569833 24.348389 C 11.410615 23.15484 11.650838 22.558067 11.650838 20.170969 L 11.650838 4.41613 C 7.446927 4.41613 3.48324 5.012903 1.561453 6.564516 L 1.561453 0.954838 L 1.561453 0.954838 Z"/>
        <path id="XMLID23" fill="#ee1c2e" stroke="none" d="M 1.561453 0.954838 L 27.986032 0.954838 L 27.986032 6.683868 C 26.064247 5.132257 22.100557 4.535484 17.896648 4.535484 L 17.896648 20.170969 C 17.896648 22.438709 18.136871 23.15484 18.977654 24.348389 L 10.569833 24.348389 C 11.410615 23.15484 11.650838 22.558067 11.650838 20.170969 L 11.650838 4.41613 C 7.446927 4.41613 3.48324 5.012903 1.561453 6.564516 L 1.561453 0.954838 L 1.561453 0.954838 Z"/>
        <path id="XMLID22" fill="#ee1c2e" stroke="none" d="M 1.561453 0.954838 L 27.986032 0.954838 L 27.986032 6.683868 C 26.064247 5.132257 22.100557 4.535484 17.896648 4.535484 L 17.896648 20.170969 C 17.896648 22.438709 18.136871 23.15484 18.977654 24.348389 L 10.569833 24.348389 C 11.410615 23.15484 11.650838 22.558067 11.650838 20.170969 L 11.650838 4.41613 C 7.446927 4.41613 3.48324 5.012903 1.561453 6.564516 L 1.561453 0.954838 L 1.561453 0.954838 Z"/>
        <path id="XMLID21" fill="#ee1c2e" stroke="none" d="M 1.561453 0.954838 L 27.986032 0.954838 L 27.986032 6.683868 C 26.064247 5.132257 22.100557 4.535484 17.896648 4.535484 L 17.896648 20.170969 C 17.896648 22.438709 18.136871 23.15484 18.977654 24.348389 L 10.569833 24.348389 C 11.410615 23.15484 11.650838 22.558067 11.650838 20.170969 L 11.650838 4.41613 C 7.446927 4.41613 3.48324 5.012903 1.561453 6.564516 L 1.561453 0.954838 L 1.561453 0.954838 Z"/>
        <path id="XMLID20" fill="#ee1c2e" stroke="none" d="M 40.597763 20.648386 C 43.360332 20.648386 47.80447 20.051613 49.606144 18.5 L 49.606144 24.229031 L 30.388268 24.229031 C 31.349163 23.15484 31.469275 22.438709 31.469275 20.170969 L 31.469275 5.012903 C 31.469275 2.745159 31.349163 2.029034 30.388268 0.954838 L 48.645252 0.954838 L 48.645252 6.683868 C 46.843575 5.132257 42.399441 4.535484 39.636871 4.535484 L 37.474861 4.535484 L 37.474861 10.741936 L 39.036312 10.741936 C 40.597763 10.741936 43 10.622583 44.561451 10.145161 L 44.561451 14.680645 C 43 14.08387 40.597763 14.08387 39.036312 14.08387 L 37.474861 14.08387 L 37.474861 20.767744 L 40.597763 20.767744 Z"/>
        <path id="XMLID19" fill="#ee1c2e" stroke="none" d="M 65.821228 9.90645 C 70.385475 10.503225 74.22905 12.174194 74.22905 17.067741 C 74.22905 22.91613 68.703911 24.706451 62.698326 24.706451 C 58.494415 24.706451 55.011173 24.229031 52.368713 23.274193 L 52.368713 18.022579 C 56.092178 20.409676 59.935757 21.125809 62.698326 21.125809 C 65.581001 21.125809 68.223465 20.409676 68.223465 18.26129 C 68.223465 16.112904 65.701118 15.516129 60.656425 14.800001 C 56.332405 14.08387 52.248604 12.293547 52.248604 7.996775 C 52.248604 2.267742 57.773743 0.477417 63.058659 0.477417 C 66.421783 0.477417 69.784912 0.835484 72.787704 1.909679 L 72.787704 7.519354 C 70.265366 5.251616 66.421783 4.058067 62.818436 4.058067 C 60.296089 4.058067 57.893856 4.893547 57.893856 6.683868 C 57.893856 8.951612 61.377094 9.309677 65.821228 9.90645 Z"/>
        <path id="XMLID18" fill="#ee1c2e" stroke="none" d="M 91.885475 0.477417 C 94.648048 0.477417 97.050285 0.835484 98.851959 1.312904 L 98.851959 7.041937 C 96.930161 5.132257 94.768158 3.938709 91.885475 3.938709 C 86.600555 3.938709 82.997208 7.638712 82.997208 12.532259 C 82.997208 17.425804 86.600555 21.125809 91.885475 21.125809 C 94.768158 21.125809 97.050285 19.932259 98.851959 18.022579 L 98.851959 23.870968 C 96.930161 24.348389 94.527931 24.706451 91.885475 24.706451 C 82.636879 24.706451 76.030724 20.170969 76.030724 12.532259 C 76.030724 5.012903 82.756989 0.477417 91.885475 0.477417 Z"/>
        <path id="Path" fill="#ee1c2e" stroke="none" d="M 115.547485 0.477417 C 106.058662 0.477417 100.653633 5.967741 100.653633 12.651611 C 100.653633 19.216127 106.058662 24.825806 115.547485 24.825806 C 125.036308 24.825806 130.441345 19.335485 130.441345 12.651611 C 130.441345 5.967741 125.036308 0.477417 115.547485 0.477417 Z M 115.547485 21.125809 C 110.743011 21.125809 107.62011 17.187099 107.62011 12.532259 C 107.62011 7.877417 110.743011 3.938709 115.547485 3.938709 C 120.351952 3.938709 123.474861 7.877417 123.474861 12.532259 C 123.354744 17.306452 120.231842 21.125809 115.547485 21.125809 Z"/>
        <path id="XMLID17" fill="#00539f" stroke="none" d="M 114.226257 30.554836 L 130.201126 30.554836 C 130.201126 30.554836 130.201126 30.554836 130.201126 30.554836 L 130.201126 30.554836 C 130.201126 30.554836 130.201126 30.554836 130.201126 30.554836 C 130.201126 30.554836 130.201126 30.674194 130.201126 30.674194 C 130.201126 30.674194 130.201126 30.674194 130.201126 30.674194 L 130.201126 30.674194 C 128.399445 31.50968 125.877098 34.016129 125.877098 34.016129 C 123.955307 35.80645 122.513969 37 119.511169 37 L 104.377098 37 C 104.377098 37 104.256989 37 104.256989 36.880646 L 104.256989 36.880646 C 104.256989 36.880646 104.256989 36.880646 104.256989 36.761288 C 104.256989 36.761288 104.256989 36.761288 104.256989 36.761288 C 105.938545 35.80645 108.460899 33.300003 108.460899 33.300003 C 109.541893 32.106453 111.583801 30.554836 114.226257 30.554836"/>
        <path id="XMLID16" fill="#00539f" stroke="none" d="M 88.28212 30.554836 L 104.256989 30.554836 C 104.256989 30.554836 104.256989 30.554836 104.256989 30.554836 L 104.256989 30.554836 C 104.256989 30.554836 104.256989 30.554836 104.256989 30.554836 C 104.256989 30.554836 104.256989 30.674194 104.256989 30.674194 C 104.256989 30.674194 104.256989 30.674194 104.256989 30.674194 L 104.256989 30.674194 C 102.455315 31.50968 99.932961 34.016129 99.932961 34.016129 C 98.011169 35.80645 96.569832 37 93.567039 37 L 78.432968 37 C 78.432968 37 78.312843 37 78.312843 36.880646 L 78.312843 36.880646 C 78.312843 36.880646 78.312843 36.880646 78.312843 36.761288 C 78.312843 36.761288 78.312843 36.761288 78.312843 36.761288 C 79.994415 35.80645 82.516754 33.300003 82.516754 33.300003 C 83.597763 32.106453 85.639671 30.554836 88.28212 30.554836"/>
        <path id="XMLID3" fill="#00539f" stroke="none" d="M 62.33799 30.554836 L 78.312843 30.554836 C 78.312843 30.554836 78.312843 30.554836 78.312843 30.554836 L 78.312843 30.554836 C 78.312843 30.554836 78.312843 30.554836 78.312843 30.554836 C 78.312843 30.554836 78.312843 30.674194 78.312843 30.674194 C 78.312843 30.674194 78.312843 30.674194 78.312843 30.674194 L 78.312843 30.674194 C 76.511177 31.50968 73.988823 34.016129 73.988823 34.016129 C 72.067039 35.80645 70.625694 37 67.622902 37 L 52.488827 37 C 52.488827 37 52.368713 37 52.368713 36.880646 L 52.368713 36.880646 C 52.368713 36.880646 52.368713 36.880646 52.368713 36.761288 C 52.368713 36.761288 52.368713 36.761288 52.368713 36.761288 C 54.050278 35.80645 56.572624 33.300003 56.572624 33.300003 C 57.653633 32.106453 59.69553 30.554836 62.33799 30.554836"/>
        <path id="XMLID2" fill="#00539f" stroke="none" d="M 36.273743 30.554836 L 52.248604 30.554836 C 52.248604 30.554836 52.248604 30.554836 52.248604 30.554836 L 52.248604 30.554836 C 52.248604 30.554836 52.248604 30.554836 52.248604 30.554836 C 52.248604 30.554836 52.248604 30.674194 52.248604 30.674194 C 52.248604 30.674194 52.248604 30.674194 52.248604 30.674194 L 52.248604 30.674194 C 50.446926 31.50968 47.924583 34.016129 47.924583 34.016129 C 46.002792 35.80645 44.681564 37 41.678772 37 L 26.544693 37 C 26.544693 37 26.424582 37 26.424582 36.880646 L 26.424582 36.880646 C 26.424582 36.880646 26.424582 36.880646 26.424582 36.761288 C 26.424582 36.761288 26.424582 36.761288 26.424582 36.761288 C 28.106144 35.80645 30.628492 33.300003 30.628492 33.300003 C 31.709497 32.106453 33.751396 30.554836 36.273743 30.554836"/>
        <path id="XMLID1" fill="#00539f" stroke="none" d="M 10.32961 30.554836 L 26.304468 30.554836 C 26.304468 30.554836 26.304468 30.554836 26.304468 30.554836 L 26.304468 30.554836 C 26.304468 30.554836 26.304468 30.554836 26.304468 30.554836 C 26.304468 30.554836 26.304468 30.674194 26.304468 30.674194 C 26.304468 30.674194 26.304468 30.674194 26.304468 30.674194 L 26.304468 30.674194 C 24.502792 31.50968 21.980446 34.016129 21.980446 34.016129 C 20.058661 35.80645 18.737431 37 15.734637 37 L 0.600559 37 C 0.600559 37 0.480447 37 0.480447 36.880646 L 0.480447 36.880646 C 0.480447 36.880646 0.480447 36.880646 0.480447 36.761288 C 0.480447 36.761288 0.480447 36.761288 0.480447 36.761288 C 2.162011 35.80645 4.684358 33.300003 4.684358 33.300003 C 5.765363 32.106453 7.807262 30.554836 10.32961 30.554836"/>
        <g id="Group">
            <path id="path1" fill="#00539f" stroke="none" d="M 146.656418 0.954838 L 154.703918 0.954838 C 156.745804 0.954838 158.307266 1.432259 159.508377 2.506451 C 160.709503 3.580647 161.189941 5.012903 161.189941 6.803226 C 161.189941 7.877417 160.949722 8.83226 160.349167 9.66774 C 159.868729 10.503225 159.148041 11.099998 158.427368 11.458063 C 159.628479 11.935484 160.589386 12.651611 161.310059 13.606453 C 162.030716 14.561291 162.391052 15.874193 162.391052 17.306452 C 162.391052 19.454838 161.670395 21.125809 160.349167 22.319355 C 159.027924 23.512905 157.226242 24.109678 154.944138 24.109678 L 146.536316 24.109678 L 146.656418 0.954838 L 146.656418 0.954838 Z M 154.583801 10.503225 C 155.784912 10.503225 156.745804 10.264515 157.346375 9.66774 C 157.94693 9.070967 158.307266 8.235485 158.307266 7.161291 C 158.307266 6.087095 157.94693 5.132257 157.346375 4.654842 C 156.745804 4.058067 155.784912 3.819355 154.583801 3.819355 L 149.539108 3.819355 L 149.539108 10.622583 L 154.583801 10.503225 L 154.583801 10.503225 Z M 154.703918 21.483871 C 156.265366 21.483871 157.346375 21.125809 158.187149 20.409676 C 159.027924 19.693548 159.38826 18.73871 159.38826 17.306452 C 159.38826 15.874193 159.027924 14.919355 158.187149 14.203228 C 157.346375 13.487097 156.145248 13.248384 154.583801 13.248384 L 149.418991 13.248384 L 149.418991 21.483871 L 154.703918 21.483871 Z"/>
            <path id="path2" fill="#00539f" stroke="none" d="M 167.67598 23.870968 C 166.83519 23.512905 166.114532 22.91613 165.634064 22.080647 C 165.153625 21.364517 164.913406 20.409676 164.913406 19.454838 C 164.913406 17.664515 165.634064 16.232256 166.955307 15.277418 C 168.396637 14.32258 170.198318 13.84516 172.480453 13.84516 L 176.203903 13.84516 L 176.203903 13.00968 C 176.203903 11.935484 175.843567 10.980646 175.002792 10.383871 C 174.282135 9.787098 173.201111 9.429033 172 9.429033 C 170.918991 9.429033 170.078217 9.66774 169.237427 10.145161 C 168.516769 10.622583 167.916199 11.338709 167.435745 12.174194 L 165.273758 10.861288 C 165.874313 9.66774 166.715088 8.712902 167.916199 7.996775 C 168.997208 7.280643 170.438538 6.922579 172 6.922579 C 174.041885 6.922579 175.723465 7.519354 177.044693 8.59355 C 178.365921 9.66774 178.966476 11.219357 178.966476 13.129032 L 178.966476 24.348389 L 176.684372 24.348389 L 176.203903 21.722582 C 175.603348 22.558067 174.88269 23.274193 173.921799 23.751614 C 172.960892 24.229031 171.879898 24.587095 170.678772 24.587095 C 169.597763 24.467743 168.636871 24.348389 167.67598 23.870968 Z M 173.561447 21.364517 C 174.402237 21.006451 175.002792 20.409676 175.483246 19.574196 C 175.963684 18.73871 176.203903 17.903225 176.203903 16.829031 L 176.203903 16.112904 L 172.600555 16.112904 C 171.039093 16.112904 169.837982 16.351614 169.117325 16.948387 C 168.27655 17.545162 167.916199 18.26129 167.916199 19.216127 C 167.916199 20.051613 168.156418 20.767744 168.756989 21.245159 C 169.357544 21.722582 170.078217 21.961292 171.039093 21.961292 C 171.879898 21.961292 172.720673 21.841934 173.561447 21.364517 Z"/>
            <path id="path3" fill="#00539f" stroke="none" d="M 183.050278 7.041937 L 185.812851 7.041937 L 185.812851 10.264515 C 186.293304 9.190323 187.013962 8.354839 188.094986 7.758064 C 189.17598 7.161291 190.256973 6.803226 191.458099 6.803226 C 193.139664 6.803226 194.581009 7.280643 195.541901 8.354839 C 196.502808 9.309677 197.103363 10.741936 197.103363 12.532259 L 197.103363 24.229031 L 194.34079 24.229031 L 194.34079 13.129032 C 194.34079 11.935484 194.100571 11.099998 193.5 10.383871 C 192.899445 9.787098 192.058655 9.429033 190.977661 9.429033 C 190.016754 9.429033 189.17598 9.66774 188.455307 10.264515 C 187.734634 10.861288 187.134079 11.696774 186.653625 12.770969 C 186.293304 13.84516 186.05307 15.158066 186.05307 16.590324 L 186.05307 24.229031 L 183.290512 24.229031 L 183.290512 7.041937 Z"/>
            <path id="path4" fill="#00539f" stroke="none" d="M 204.069824 14.441935 L 210.675964 7.161291 L 214.159225 7.161291 L 207.072617 15.038708 L 214.759781 24.348389 L 211.276535 24.348389 L 204.069824 15.635483 L 204.069824 24.348389 L 201.307266 24.348389 L 201.307266 0.716129 L 204.069824 0.716129 L 204.069824 14.441935 Z"/>
        </g>
    </g>
    <g id="Artwork3"/>
</svg>
